<?xml version="1.0" encoding="UTF-8" standalone="no"?>
<svg
   xmlns:dc="http://purl.org/dc/elements/1.1/"
   xmlns:cc="http://creativecommons.org/ns#"
   xmlns:rdf="http://www.w3.org/1999/02/22-rdf-syntax-ns#"
   xmlns:svg="http://www.w3.org/2000/svg"
   xmlns="http://www.w3.org/2000/svg"
   viewBox="0 0 914.98669 191.06667"
   height="191.06667"
   width="914.98669"
   xml:space="preserve"
   id="svg2"
   version="1.1"><metadata
     id="metadata8"><rdf:RDF><cc:Work
         rdf:about=""><dc:format>image/svg+xml</dc:format><dc:type
           rdf:resource="http://purl.org/dc/dcmitype/StillImage" /></cc:Work></rdf:RDF></metadata><defs
     id="defs6" /><g
     transform="matrix(1.3333333,0,0,-1.3333333,0,191.06667)"
     id="g10"><g
       transform="scale(0.1)"
       id="g12"><path
         id="path14"
         style="fill:#303b97;fill-opacity:1;fill-rule:nonzero;stroke:none"
         d="M 0,1416.68 V 512.938 H 69.8828 V 956.73 H 426.332 v 58.22 H 69.8828 v 343.52 H 465.141 v 58.21 H 0" /><path
         id="path16"
         style="fill:#303b97;fill-opacity:1;fill-rule:nonzero;stroke:none"
         d="m 1742.16,1358.46 v -353.85 h 150.07 c 76.35,0 134.67,15.41 175,46.25 40.32,30.83 60.49,74.48 60.49,131 0,55.63 -20.49,98.98 -61.46,130.03 -40.97,31.05 -99.86,46.57 -176.61,46.57 z m -69.87,58.23 h 231.59 c 97.05,0 171.22,-21.03 222.54,-63.08 51.33,-42.05 76.99,-98.88 76.99,-170.47 0,-104.36 -57.37,-177.69 -172.08,-219.945 29.76,-14.23 69.86,-60.164 120.32,-137.789 l 204.43,-312.461 h -82.71 l -157.42,247.68 c -52.6,82.84 -93.56,134.496 -122.88,155 -29.31,20.5 -72.22,30.746 -128.69,30.746 H 1742.16 V 512.945 h -69.87 v 903.745" /><path
         id="path18"
         style="fill:#303b97;fill-opacity:1;fill-rule:nonzero;stroke:none"
         d="m 2926.02,1416.68 v -58.22 H 2502.93 V 996.844 h 412.09 V 937.961 H 2502.93 V 571.156 h 433.43 v -58.218 h -503.29 v 903.742 h 492.95" /><path
         id="path20"
         style="fill:#303b97;fill-opacity:1;fill-rule:nonzero;stroke:none"
         d="m 3506.3,1371.4 v -76.98 c -78.49,46.14 -145.98,69.22 -202.48,69.22 -54.34,0 -99.74,-16.5 -136.18,-49.5 -36.46,-32.98 -54.66,-73.86 -54.66,-122.59 0,-34.92 10.78,-66.41 32.35,-94.44 21.56,-28.04 66.63,-54.99 135.2,-80.87 68.57,-25.881 118.6,-47.439 150.09,-64.689 31.47,-17.262 58.21,-42.274 80.2,-75.051 22.01,-32.77 33,-75.258 33,-127.441 0,-69.446 -25.45,-128.086 -76.33,-175.957 -50.89,-47.864 -113,-71.817 -186.31,-71.817 -75.03,0 -152.25,26.32 -231.59,78.938 v 82.156 c 87.54,-64.266 163.44,-96.395 227.71,-96.395 53.47,0 98.66,17.352 135.53,52.079 36.88,34.726 55.31,77.316 55.31,127.789 0,38.386 -11.44,72.996 -34.29,103.836 -22.86,30.839 -69.2,59.664 -139.03,86.48 -69.85,26.812 -119.75,48.414 -149.74,64.792 -30.01,16.36 -55.47,39.76 -76.4,70.15 -20.92,30.38 -31.39,69.5 -31.39,117.35 0,66.37 25.45,122.95 76.34,169.72 50.88,46.75 112.14,70.15 183.72,70.15 70.29,0 139.95,-18.98 208.95,-56.93" /><path
         id="path22"
         style="fill:#303b97;fill-opacity:1;fill-rule:nonzero;stroke:none"
         d="m 3701.67,512.938 h 69.8672 v 903.738 H 3701.67 Z" /><path
         id="path24"
         style="fill:#303b97;fill-opacity:1;fill-rule:nonzero;stroke:none"
         d="m 4734.8,1351.34 v -78.92 c -106.96,60.81 -213.71,91.22 -320.23,91.22 -114.29,0 -209.39,-37.96 -285.29,-113.86 -75.9,-75.92 -113.86,-171 -113.86,-285.296 0,-114.293 37.53,-209.269 112.57,-284.964 75.04,-75.684 177.02,-113.536 305.99,-113.536 93.16,0 175.74,18.543 247.77,55.645 v 243.875 h -190.84 v 58.219 h 261.36 v -346.09 c -106.54,-50.899 -213.49,-76.336 -320.87,-76.336 -140.18,0 -257.15,44.414 -350.96,133.262 -93.81,88.847 -140.7,199.675 -140.7,332.515 0,131.976 46.03,241.826 138.11,329.606 92.08,87.75 207.77,131.64 347.07,131.64 94.89,0 198.17,-25.66 309.88,-76.98" /><path
         id="path26"
         style="fill:#303b97;fill-opacity:1;fill-rule:nonzero;stroke:none"
         d="M 5674.78,1416.68 V 512.938 h -70.53 V 941.203 H 5001.33 V 512.938 h -69.86 v 903.742 h 69.86 V 999.43 h 602.92 v 417.25 h 70.53" /><path
         id="path28"
         style="fill:#303b97;fill-opacity:1;fill-rule:nonzero;stroke:none"
         d="m 6533.23,1416.68 v -58.22 H 6194.24 V 512.938 h -70.52 v 845.522 h -338.98 v 58.22 h 748.49" /><path
         id="path30"
         style="fill:#303b97;fill-opacity:1;fill-rule:nonzero;stroke:none"
         d="m 1304.63,961.668 c 0,-157.711 -127.85,-285.559 -285.56,-285.559 -157.711,0 -285.55,127.848 -285.55,285.559 0,157.712 127.839,285.562 285.55,285.562 157.71,0 285.56,-127.85 285.56,-285.562" /><path
         id="path32"
         style="fill:#ffffff;fill-opacity:1;fill-rule:nonzero;stroke:none"
         d="m 1242.47,1084.19 c 0,-77.76 -63.04,-140.815 -140.81,-140.815 -77.77,0 -140.808,63.055 -140.808,140.815 0,77.76 63.038,140.81 140.808,140.81 77.77,0 140.81,-63.05 140.81,-140.81" /><path
         id="path34"
         style="fill:#3a7587;fill-opacity:1;fill-rule:nonzero;stroke:none"
         d="m 1019.08,1433 c -260.318,0 -471.338,-211.02 -471.338,-471.328 0,-260.309 211.02,-471.332 471.338,-471.332 260.3,0 471.32,211.023 471.32,471.332 0,260.308 -211.02,471.328 -471.32,471.328 m 0,-58.87 c 227.42,0 412.45,-185.03 412.45,-412.458 0,-227.434 -185.03,-412.469 -412.45,-412.469 -227.435,0 -412.467,185.035 -412.467,412.469 0,227.428 185.032,412.458 412.467,412.458" /><path
         id="path36"
         style="fill:#3a7587;fill-opacity:1;fill-rule:nonzero;stroke:none"
         d="m 5060.58,142.238 v 0.793 c 0,78.231 58.48,143.028 138.29,143.028 49.39,0 79.02,-18.168 107.47,-44.25 l -14.62,-15.02 c -24.1,23.313 -51.76,40.699 -93.24,40.699 -66.39,0 -116.56,-54.117 -116.56,-123.679 v -0.778 c 0,-69.9412 50.96,-124.4607 116.95,-124.4607 39.91,0 67.17,15.4102 95.22,43.0703 l 13.83,-13.4414 C 5278.68,19.3594 5247.07,0 5198.08,0 c -79.02,0 -137.5,62.8203 -137.5,142.238" /><path
         id="path38"
         style="fill:#3a7587;fill-opacity:1;fill-rule:nonzero;stroke:none"
         d="m 5482.14,114.191 -118.53,167.118 h 25.68 l 103.52,-148.547 103.91,148.547 h 24.49 L 5502.69,114.582 V 4.73828 h -20.55 V 114.191" /><path
         id="path40"
         style="fill:#3a7587;fill-opacity:1;fill-rule:nonzero;stroke:none"
         d="M 5818.74,134.73 H 5725.1 V 23.7109 h 100.36 c 47.41,0 77.44,21.7305 77.44,56.4883 V 81 c 0,33.98 -29.64,53.73 -84.16,53.73 z m 68.75,76.649 c 0,30.43 -24.89,50.973 -69.15,50.973 H 5725.1 V 153.699 h 91.27 c 41.48,0 71.12,20.141 71.12,56.891 z m -182.94,69.93 h 114.19 c 31.21,0 56.5,-9.079 71.92,-24.489 11.45,-11.461 17.77,-26.07 17.77,-43.449 v -0.812 c 0,-37.52 -24.49,-56.489 -47.02,-65.579 33.19,-8.691 62.43,-27.66 62.43,-65.98 v -0.8008 c 0,-46.2187 -39.51,-75.46092 -99.17,-75.46092 H 5704.55 V 281.309" /><path
         id="path42"
         style="fill:#3a7587;fill-opacity:1;fill-rule:nonzero;stroke:none"
         d="m 6019.43,281.309 h 196.75 V 262.352 H 6039.97 V 153.699 h 158.44 V 134.73 H 6039.97 V 23.7109 h 178.2 V 4.73828 H 6019.43 V 281.309" /><path
         id="path44"
         style="fill:#3a7587;fill-opacity:1;fill-rule:nonzero;stroke:none"
         d="m 6427.54,137.891 c 46.23,0 80.61,23.32 80.61,63.218 v 0.789 c 0,37.141 -29.24,60.454 -79.42,60.454 H 6334.3 V 137.891 Z m -113.79,143.418 h 116.17 c 33.98,0 61.25,-10.661 77.83,-27.258 13.04,-13.039 20.94,-31.602 20.94,-51.36 v -0.793 c 0,-46.218 -34.37,-72.699 -80.99,-79.019 L 6538.97,4.73828 h -26.08 L 6424.78,119.32 H 6334.3 V 4.73828 h -20.55 V 281.309" /><path
         id="path46"
         style="fill:#3a7587;fill-opacity:1;fill-rule:nonzero;stroke:none"
         d="m 6759.98,1221.78 c -49.01,0 -88.88,39.88 -88.88,88.89 0,49.01 39.87,88.89 88.88,88.89 49.02,0 88.89,-39.88 88.89,-88.89 0,-49.01 -39.87,-88.89 -88.89,-88.89 z m 0,191.31 c -56.56,0 -102.42,-45.86 -102.42,-102.42 0,-56.56 45.86,-102.42 102.42,-102.42 56.57,0 102.43,45.86 102.43,102.42 0,56.56 -45.86,102.42 -102.43,102.42" /><path
         id="path48"
         style="fill:#3a7587;fill-opacity:1;fill-rule:nonzero;stroke:none"
         d="m 6779.81,1320.29 c -2.67,-1.24 -6.67,-1.85 -11.99,-1.85 h -26.84 v 30.45 h 27.52 c 5.13,0 8.97,-0.67 11.53,-2 4.57,-2.36 6.85,-6.98 6.85,-13.84 0,-6.36 -2.37,-10.61 -7.07,-12.76 z m 28.3,-55.75 c -0.42,1.84 -0.62,5.35 -0.62,10.53 v 7.61 c 0,7.95 -1.09,13.86 -3.27,17.73 -2.18,3.86 -5.88,6.85 -11.11,8.96 6.25,2.15 10.74,5.83 13.46,11.03 2.71,5.2 4.07,10.49 4.07,15.88 0,4.46 -0.72,8.43 -2.15,11.92 -1.44,3.48 -3.38,6.66 -5.85,9.53 -2.97,3.49 -6.6,6.13 -10.88,7.93 -4.28,1.79 -10.39,2.76 -18.34,2.91 h -55.58 v -113.34 h 23.14 v 44.45 h 24.44 c 6.98,0 11.73,-1.21 14.27,-3.62 2.54,-2.41 3.86,-7.22 3.96,-14.46 l 0.15,-10.53 c 0.05,-3.33 0.39,-6.59 1.01,-9.77 0.3,-1.54 0.81,-3.56 1.53,-6.07 h 26.07 v 2.84 c -2.26,1.39 -3.7,3.54 -4.3,6.47" /><path
         id="path50"
         style="fill:#303b97;fill-opacity:1;fill-rule:nonzero;stroke:none"
         d="M 0,1418.8 V 515.066 H 69.8828 V 958.855 H 426.332 v 58.215 H 69.8828 v 343.52 H 465.141 v 58.21 H 0" /></g></g></svg>